<svg width="42" height="35" viewBox="0 0 42 35" fill="none" xmlns="http://www.w3.org/2000/svg">
<path d="M1 33.5H3M40.5 33.5H38.5M3 33.5V1H38.5V33.5M3 33.5H38.5" stroke="white" stroke-width="1.8" stroke-linecap="round"/>
<path d="M6.5 33.5V20H15V33.5" stroke="white" stroke-width="1.8" stroke-linecap="round"/>
<path d="M22.8279 16.0345C22.8279 15.7393 23.0672 15.5 23.3624 15.5C23.6576 15.5 23.8969 15.7393 23.8969 16.0345V19.6272C23.8969 20.0087 23.8228 20.3401 23.6746 20.6214C23.5281 20.9027 23.3241 21.1195 23.0627 21.2717C22.8013 21.4239 22.4974 21.5 22.151 21.5C21.843 21.5 21.5632 21.4374 21.3118 21.3121C21.062 21.185 20.8639 20.9923 20.7173 20.7341C20.644 20.6039 20.5892 20.457 20.553 20.2935C20.4881 20.0004 20.7427 19.7543 21.0429 19.7543H21.1636C21.3931 19.7543 21.5627 19.9477 21.659 20.1561C21.7123 20.2659 21.7847 20.3507 21.8763 20.4104C21.9695 20.4682 22.0794 20.4971 22.206 20.4971C22.3392 20.4971 22.4516 20.4644 22.5432 20.3988C22.6364 20.3314 22.7072 20.2331 22.7555 20.104C22.8038 19.975 22.8279 19.816 22.8279 19.6272V16.0345Z" fill="white"/>
<path d="M26.4706 21.4191C26.1604 21.4191 25.8903 21.2076 25.8158 20.9065L24.652 16.2001C24.564 15.8441 24.8334 15.5 25.2001 15.5C25.4681 15.5 25.6991 15.6883 25.7531 15.9507L26.5027 19.5917C26.5052 19.6039 26.516 19.6127 26.5285 19.6127C26.5408 19.6127 26.5514 19.6042 26.5542 19.5922L27.3717 15.993C27.4372 15.7046 27.6935 15.5 27.9892 15.5C28.2851 15.5 28.5416 15.705 28.6068 15.9936L29.422 19.5997C29.4249 19.6124 29.4361 19.6214 29.4491 19.6214C29.4624 19.6214 29.4738 19.6121 29.4764 19.5991L30.2259 15.9509C30.2799 15.6884 30.5109 15.5 30.7789 15.5C31.1456 15.5 31.4149 15.8441 31.3269 16.2L30.1631 20.9064C30.0886 21.2075 29.8184 21.4191 29.5082 21.4191C29.199 21.4191 28.9294 21.2089 28.8539 20.9091L28.0082 17.5491C27.9847 17.5491 27.9642 17.5651 27.9585 17.5879L27.1247 20.9089C27.0494 21.2088 26.7798 21.4191 26.4706 21.4191Z" fill="white"/>
<path d="M3 6H38.5M33.5 26.5V11H18.5V26.5H33.5Z" stroke="white" stroke-width="1.8" stroke-linecap="round"/>
</svg>
