<svg width="18" height="32" viewBox="0 0 18 32" fill="none" xmlns="http://www.w3.org/2000/svg">
<path d="M8.34086 31.9957C7.37049 31.9808 6.4034 31.9659 5.43303 31.9349L4.92704 31.9232C4.65761 31.9179 4.38818 31.9125 4.11985 31.9008C3.68286 31.8795 3.25134 31.8389 2.81763 31.7941C2.61391 31.9093 2.4562 31.9616 2.29739 31.9616C1.79797 31.9616 1.38835 31.5627 1.38397 31.072C1.36645 29.6661 1.44859 28.2357 1.52745 26.8523L1.59207 25.6843C1.65011 24.5611 1.72021 23.7024 1.81768 22.9024C1.94144 21.8613 2.09916 20.8139 2.28754 19.7888C2.45839 18.8629 2.68182 17.9211 2.95234 16.9899C3.09034 16.5045 3.2371 16.0224 3.39153 15.5424L3.49229 15.2309C3.60619 14.8779 3.72009 14.5237 3.85809 14.1792C4.20857 13.3024 4.64666 12.4032 5.23918 11.3515C5.69369 10.5408 6.12741 9.72267 6.55673 8.8992C6.32455 8.45973 6.05293 8.096 5.78241 7.73333L5.51079 7.36427C5.06832 6.75093 4.62475 6.13867 4.17571 5.5296H4.12204L4.05742 5.55733C4.03771 6.14293 4.01909 6.72747 4.00376 7.312C3.9939 7.7216 3.96871 8.14293 4.01033 8.55147C4.041 8.85547 4.09138 9.2 3.92271 9.47947C3.79567 9.69067 3.58538 9.84853 3.34553 9.91253C3.26886 9.9328 3.18781 9.9424 3.10567 9.9424C2.71577 9.9424 2.25249 9.70347 2.16158 9.25867C2.05863 8.77227 2.0663 8.256 2.07397 7.7568L2.07725 7.3152C2.07397 6.7232 2.07397 6.1312 2.08492 5.5392L1.8823 5.4848H1.58878C1.38397 5.4848 1.18574 5.47413 0.983119 5.4368C0.685217 5.3824 0.412506 5.19787 0.254793 4.94187C-0.0606327 4.42667 -0.011348 3.77493 0.0313659 3.20107C0.0675085 2.70613 0.0653183 2.2208 0.0631278 1.73227C0.0631278 1.4112 0.161699 1.19467 0.340221 1.03147C0.470553 0.679467 0.788169 0.452267 1.14521 0.4448L2.2503 0.426667L3.11772 0.420267C3.76938 0.418133 4.42214 0.416 5.07489 0.381867C5.57322 0.356267 6.07045 0.317867 6.56878 0.280533C7.04411 0.244267 7.51834 0.208 7.99477 0.1824C8.9279 0.132267 9.85994 0.1088 10.7953 0.0938667L11.6014 0.0853334C12.253 0.0810667 12.9047 0.0757333 13.5684 0.0384C13.6921 0.0384 13.7688 0.0650667 13.8499 0.0938667C14.0295 0.0298667 14.1543 0 14.277 0C14.5147 0 14.749 0.0949333 14.921 0.260267C15.1039 0.439467 15.1597 0.6432 15.1882 0.893867C15.2167 1.17973 15.1926 1.48267 15.1674 1.77387C15.1565 1.90187 15.1466 2.0288 15.1411 2.15573C15.1214 2.59733 15.0973 3.04107 15.0601 3.48373L15.0458 3.62773C15.0108 4.02773 14.9747 4.43093 14.9243 4.83307L14.9068 4.97813C14.8925 5.10187 14.8794 5.22347 14.852 5.344C14.7896 5.6192 14.668 5.8528 14.4577 6.1024L14.185 6.42773C13.7491 6.99413 13.3439 7.58187 12.9375 8.16747L12.4491 8.86613L12.4184 8.944C12.4337 8.97493 12.4403 9.0112 12.448 9.04853C12.9014 9.83467 13.3154 10.5515 13.7261 11.2704C14.2485 12.1813 14.6472 13.1339 14.9681 13.9445C15.3361 14.8821 15.692 15.7888 15.9834 16.6987C16.1531 17.2181 16.2911 17.7472 16.4215 18.2784C16.6022 18.5312 16.6679 18.8213 16.6076 19.0709L16.681 19.4123C16.8727 20.3232 17.0315 21.2427 17.1772 22.16C17.233 22.5077 17.2703 22.8576 17.3086 23.2075L17.3612 23.6896C17.4137 24.1397 17.4652 24.5899 17.4959 25.0421C17.543 25.7024 17.6142 26.3595 17.6832 27.0155L17.7565 27.7003C17.7905 28.0416 17.8168 28.3851 17.8431 28.7275C17.8792 29.2021 17.9164 29.6779 17.9734 30.1493C17.9843 30.2155 17.9931 30.2773 17.9975 30.3371C18.0106 30.5333 17.9723 30.6955 17.8814 30.8469C17.8179 30.9525 17.7226 31.0453 17.589 31.1317C17.5265 31.3611 17.451 31.5136 17.3382 31.6235C17.1443 31.8101 16.9209 31.8549 16.7084 31.8741C16.3437 31.9104 15.9823 31.9147 15.6176 31.9147L13.4512 31.9179C12.6845 31.9179 11.919 31.9264 11.1512 31.9509C10.3846 31.9755 9.62118 32 8.85562 32L8.34086 31.9957ZM6.22926 16.4341C5.84703 16.4341 5.4637 16.4544 5.08146 16.4757C4.8657 17.0603 4.70032 17.6075 4.55356 18.1589C4.37394 18.8405 4.24252 19.5264 4.11219 20.2272C3.98185 20.9216 3.86466 21.6181 3.75952 22.32C3.66314 23.0624 3.58319 23.8059 3.52843 24.5493C3.50105 24.9355 3.39372 26.7008 3.39372 26.7008C3.31486 27.8272 3.26996 28.9547 3.23819 30.0853C3.98076 30.2059 4.67294 30.2496 5.36951 30.2816C6.29059 30.3253 7.21278 30.3445 8.13605 30.3445C9.13381 30.3445 10.1316 30.3221 11.1293 30.288C12.0592 30.256 12.989 30.2411 13.921 30.2315C14.6439 30.2251 15.3722 30.2165 16.0962 30.1803C16.1093 29.7781 16.0786 29.4325 16.0502 29.0891L15.9899 28.4213L15.9067 27.6288C15.8618 27.2235 15.818 26.8181 15.7829 26.4117L15.7249 25.68C15.6909 25.2309 15.6559 24.7819 15.6055 24.3349C15.5376 23.7237 15.4631 23.1125 15.3887 22.5003C15.2572 21.6213 15.0962 20.7349 14.8881 19.7579C14.3964 19.6917 13.9572 19.68 13.5158 19.6683L13.1259 19.6576C12.1358 19.6309 11.1468 19.5776 10.1557 19.5253L10.0976 19.5221L10.079 19.6256C10.0407 20.6091 9.98589 21.5936 9.9147 22.5739L9.87966 23.1253C9.85994 23.4517 9.83913 23.776 9.81175 24.1013L9.79204 24.3456C9.75699 24.7904 9.72085 25.2512 9.6179 25.6864C9.53356 26.0491 9.35614 26.3915 9.09 26.7029C8.79648 27.0453 8.37153 27.3003 7.82829 27.4603C7.26863 27.6267 6.66845 27.6768 6.10112 27.7141H6.09783C5.51408 27.7141 5.1187 27.2075 5.1187 26.7541C5.1187 26.2283 5.56117 25.7984 6.1044 25.7963C6.33112 25.7941 6.55564 25.7845 6.78016 25.7653C7.00797 25.7269 7.22482 25.6757 7.43949 25.6085L7.57311 25.5307L7.69796 25.3728C7.75163 25.2107 7.78777 25.0453 7.81625 24.8779C7.9411 23.8539 7.99696 22.8053 8.05063 21.7931L8.07034 21.4261C8.1032 20.8032 8.1251 20.1813 8.13934 19.5584C8.15577 18.9003 8.13824 18.3659 8.08348 17.8773C8.01339 17.5147 7.93234 17.2181 7.82829 16.9419C7.78339 16.8523 7.73739 16.7701 7.68591 16.6912L7.55449 16.6048C7.3683 16.5429 7.18978 16.4992 7.00468 16.4672C6.74511 16.4427 6.48774 16.4341 6.22926 16.4341ZM6.89406 14.5323C7.19416 14.5376 7.58515 14.5568 7.94877 14.6507C8.28391 14.7413 8.56538 14.8693 8.78443 15.0304C9.04838 15.2245 9.22143 15.3984 9.3638 15.6107C9.48647 15.7941 9.56861 15.9765 9.65623 16.1792C9.81613 16.5536 9.92675 16.9813 10.0034 17.5232L10.9606 17.6213C11.7153 17.6672 14.346 17.8155 14.346 17.8155C14.0569 16.5109 13.6034 15.2363 13.0164 13.8496C12.5093 12.6965 11.8708 11.6213 11.0691 10.3605C10.4963 10.3083 9.96727 10.2848 9.43937 10.2624L8.25324 10.2101C8.17439 10.2059 8.1021 10.1845 8.02434 10.1611L7.45373 11.0155C6.90173 12.0096 6.33221 13.0368 5.85141 14.0853C5.81527 14.1717 5.67179 14.5653 5.67179 14.5653L6.11426 14.5493C6.33002 14.5408 6.54578 14.5312 6.76154 14.5312L6.89406 14.5323ZM9.87089 1.81867C9.00457 1.81867 8.13934 1.82933 7.27301 1.86773C6.90721 1.8848 6.5414 1.90507 6.17669 1.9264C5.5776 1.95947 4.97851 1.99467 4.37723 2.01173C3.81428 2.02773 1.84506 2.07147 1.84506 2.07147L1.78373 2.2976C1.7684 2.75733 1.75197 3.23307 1.79468 3.696C2.06411 3.75893 2.28315 3.7632 2.50111 3.76747L3.24586 3.78987C3.61933 3.8016 3.99281 3.8144 4.36518 3.81973C4.59409 3.82507 4.80985 3.9136 4.97413 4.0704C5.25451 4.144 5.41441 4.26347 5.5776 4.4896C5.97626 5.04 6.36069 5.60107 6.74402 6.16213L7.03316 6.58347L7.33106 7.0048C7.59391 7.3696 7.86553 7.74827 8.07801 8.14613L8.24448 8.16L10.7471 8.3072C10.8226 8.14613 10.8599 8.04907 10.9179 7.96587L12.7272 5.46133C12.8412 5.30667 12.9583 5.1488 13.0547 4.9824C13.092 4.85653 13.1139 4.74133 13.1347 4.62613C13.2113 4.03093 13.2847 3.39733 13.311 2.77013C13.3252 2.47467 13.3373 2.17813 13.345 1.8816L13.046 1.8272L9.87089 1.81867Z" fill="white"/>
</svg>
