<svg width="41" height="34" viewBox="0 0 41 34" fill="none" xmlns="http://www.w3.org/2000/svg">
<path d="M3.41237 15.5823L1 20.443L11.4536 22.8734L12.2577 24.0886L17.8866 25.7089L19.8969 24.8987M3.41237 15.5823L12.6598 1L19.124 2.3025C20.1521 2.50965 21.0955 3.01765 21.8343 3.76199C22.4111 4.34311 22.8337 5.05488 23.1439 5.81264C23.399 6.43584 23.7112 7.07595 23.9175 7.07595C24.2177 7.07595 24.7421 5.72101 24.9885 5.03449C25.0801 4.77938 25.2231 4.54545 25.414 4.35308C25.7429 4.02178 26.1904 3.83544 26.6572 3.83544H27.1527C27.4072 3.83544 27.6606 3.86846 27.9066 3.93368L35.1753 5.86076M3.41237 15.5823L11.3118 17.3124C12.1917 17.5051 12.9974 17.9477 13.6319 18.587C13.7878 18.744 13.9323 18.9118 14.0644 19.0893L15.0722 20.443V22.0633L15.8763 20.038L16.2025 19.7094C16.7657 19.1419 17.5321 18.8228 18.3317 18.8228H18.7208C18.9678 18.8228 19.2139 18.8533 19.4535 18.9136L22.3093 19.6329M35.1753 5.86076L39.5979 9.91139L40 9.50633L36.7835 16.7975M35.1753 5.86076L30.3505 15.9873M26.3299 24.4937H35.1753M23.1134 24.0886L27.134 19.2278H35.1753L38.3918 24.0886L30.7526 33L23.1134 24.0886Z" stroke="white" stroke-width="2" stroke-linecap="round" stroke-linejoin="round"/>
</svg>
