<svg width="35" height="35" viewBox="0 0 35 35" fill="none" xmlns="http://www.w3.org/2000/svg">
<path d="M19.5 8.5V1H33.5V15M33.5 33.5V15M24 33.5L23.5 25.5L22 22.5V16C22 15.1121 22.5886 14.3318 23.4423 14.0879L24.8139 13.696C25.22 13.58 25.5 13.2088 25.5 12.7864C25.5 12.5997 25.4447 12.4171 25.3411 12.2617L24.8359 11.5038C24.6169 11.1753 24.5 10.7893 24.5 10.3944V8.57037C24.5 7.90166 24.8342 7.2772 25.3906 6.90627L26.2832 6.31121C27.0079 5.82809 27.9619 5.86949 28.642 6.41358L29.2494 6.89951C29.7238 7.27906 30 7.85368 30 8.46125V10.3944C30 10.7893 29.8831 11.1753 29.6641 11.5038L29.1641 12.2539C29.0571 12.4144 29 12.6029 29 12.7958C29 13.2163 29.2691 13.5897 29.668 13.7227L33.5 15M10.5 33.5L11 25.5M3.5 33.5L2.5 25.5L1 23V16.4721C1 16.1616 1.07229 15.8554 1.21115 15.5777L1.22919 15.5416C1.40577 15.1885 1.68294 14.8955 2.02577 14.6996L4.49337 13.2895C4.80666 13.1105 5 12.7773 5 12.4165C5 12.1498 4.89406 11.8941 4.7055 11.7055L4.08579 11.0858C3.71071 10.7107 3.5 10.202 3.5 9.67157V8.57037C3.5 7.90166 3.8342 7.2772 4.3906 6.90627L5.3906 6.2396C6.0624 5.79173 6.9376 5.79173 7.6094 6.2396L8.6094 6.90627C9.1658 7.2772 9.5 7.90166 9.5 8.57037V9.89445C9.5 10.2893 9.38312 10.6753 9.1641 11.0038L8.69018 11.7147C8.56617 11.9007 8.5 12.1193 8.5 12.3429C8.5 12.7492 8.71774 13.1244 9.07056 13.326L11.4742 14.6996C11.8171 14.8955 12.0942 15.1885 12.2708 15.5416L12.5 16L13.6461 18.6742C13.8005 19.0344 14.2905 19.085 14.5153 18.7639L17.5 14.5" stroke="white" stroke-width="1.5" stroke-linecap="round"/>
</svg>
