<svg width="34" height="34" viewBox="0 0 34 34" fill="none" xmlns="http://www.w3.org/2000/svg">
<path d="M7.50001 10.5V1.5H14M23 32.5H33V1.5H14M14 1.5V10.5M18.5 9H28M19.5 21H17.5M19.5 25.5H17.5M17.5 25.5H4.00771C3.67144 25.5 3.33737 25.4458 3.01836 25.3395L2.63547 25.2118C2.22361 25.0745 1.86926 24.8039 1.62845 24.4427C1.23984 23.8597 1.19336 23.1133 1.50667 22.4867L1.58352 22.333C1.85019 21.7996 2.31781 21.3941 2.88351 21.2055L3.07777 21.1407C3.35743 21.0475 3.65029 21 3.94509 21H17.5M17.5 25.5V21M17.5 32.5H4.00769C3.67142 32.5 3.33736 32.4458 3.01835 32.3395L2.63545 32.2118C2.2236 32.0745 1.86925 31.8039 1.62843 31.4427C1.23982 30.8597 1.19335 30.1133 1.50666 29.4867L1.5835 29.333C1.85018 28.7996 2.3178 28.3941 2.8835 28.2055L3.07775 28.1407C3.35742 28.0475 3.65028 28 3.94507 28H17.5M17.5 32.5H19.5M17.5 32.5V28M19.5 28H17.5M14 18H4.00772C3.67145 18 3.33738 17.9458 3.01837 17.8395L2.63548 17.7118C2.22362 17.5745 1.86928 17.3039 1.62846 16.9427C1.23985 16.3597 1.19338 15.6133 1.50669 14.9867L1.58353 14.833C1.8502 14.2996 2.31783 13.8941 2.88353 13.7055L3.07778 13.6407C3.35744 13.5475 3.65031 13.5 3.9451 13.5L14 13.6407M14 18H16M14 18V16V13.6407M16 13.6407H14" stroke="white" stroke-width="1.5" stroke-linecap="round"/>
</svg>
